<svg xmlns="http://www.w3.org/2000/svg" width="74" height="18"><g fill="none" fill-rule="evenodd"><path fill="#FFF" fill-rule="nonzero" d="M22 18V6h-4v12h-4V0h4v4h6v2h2v12h-4zM32 8v10h-4V4h4v2h2V4h4v4h-6zm20 6v2h-2v-2h2zm-10 4v-2h-2V6h2V4h8v2h2v6h-8v4h6v2h-8zm6-8V6h-4v4h4zm12-8v2h2v2h-2v12h-4V6h-2V4h2V2h2V0h6v2h-4zm10 6v2h2v2h2v4h-2v2h-6v-2h4v-2h-2v-2h-2v-2h-2V6h2V4h6v2h-4v2h2zm-6 6h2v2h-2v-2zm10-6h-2V6h2v2z"/><path fill="#F80" d="M2 18v-2H0v-4h2v-2h6V6H2V4h8v2h2v12H2zm2-6v4h4v-4H4zM0 8V6h2v2H0z"/></g></svg>