<?xml version="1.0" encoding="UTF-8"?>
<!DOCTYPE svg PUBLIC "-//W3C//DTD SVG 1.1//EN" "http://www.w3.org/Graphics/SVG/1.1/DTD/svg11.dtd">
<svg xmlns="http://www.w3.org/2000/svg" version="1.1" width="238px" height="103px" style="shape-rendering:geometricPrecision; text-rendering:geometricPrecision; image-rendering:optimizeQuality; fill-rule:evenodd; clip-rule:evenodd" xmlns:xlink="http://www.w3.org/1999/xlink">
<g><path style="opacity:1" fill="#030617" d="M -0.5,-0.5 C 78.8333,-0.5 158.167,-0.5 237.5,-0.5C 237.5,33.8333 237.5,68.1667 237.5,102.5C 158.167,102.5 78.8333,102.5 -0.5,102.5C -0.5,68.1667 -0.5,33.8333 -0.5,-0.5 Z"/></g>
<g><path style="opacity:1" fill="#faf2e5" d="M 108.5,38.5 C 109.833,38.5 111.167,38.5 112.5,38.5C 112.5,46.5 112.5,54.5 112.5,62.5C 111.167,62.5 109.833,62.5 108.5,62.5C 108.5,54.5 108.5,46.5 108.5,38.5 Z"/></g>
<g><path style="opacity:1" fill="#efebe2" d="M 40.5,39.5 C 46.1667,39.5 51.8333,39.5 57.5,39.5C 57.5,40.5 57.5,41.5 57.5,42.5C 55.5,42.5 53.5,42.5 51.5,42.5C 51.5,49.1667 51.5,55.8333 51.5,62.5C 49.8333,62.5 48.1667,62.5 46.5,62.5C 46.5,55.8333 46.5,49.1667 46.5,42.5C 44.5,42.5 42.5,42.5 40.5,42.5C 40.5,41.5 40.5,40.5 40.5,39.5 Z"/></g>
<g><path style="opacity:1" fill="#ebe6dc" d="M 116.5,39.5 C 118.665,39.1159 120.332,39.7826 121.5,41.5C 120.332,43.2174 118.665,43.8841 116.5,43.5C 116.5,42.1667 116.5,40.8333 116.5,39.5 Z"/></g>
<g><path style="opacity:1" fill="#e8e5e3" d="M 60.5,46.5 C 68.0019,45.0617 71.6686,48.0617 71.5,55.5C 67.774,55.1774 64.1073,55.5108 60.5,56.5C 60.9767,57.4776 61.6433,58.3109 62.5,59C 65.1922,59.4298 67.8589,59.2631 70.5,58.5C 69.8256,61.9067 67.6589,63.24 64,62.5C 57.2181,61.961 54.5514,58.2943 56,51.5C 57.025,49.313 58.525,47.6464 60.5,46.5 Z"/></g>
<g><path style="opacity:1" fill="#efeae1" d="M 77.5,46.5 C 80.5,46.5 83.5,46.5 86.5,46.5C 86.8799,50.1569 85.5466,51.1569 82.5,49.5C 77.3305,50.7688 76.1639,53.7688 79,58.5C 81.1317,59.7797 83.2984,59.7797 85.5,58.5C 86.7633,61.9102 85.43,63.2436 81.5,62.5C 74.269,61.7363 71.769,57.7363 74,50.5C 75.3756,49.2949 76.5423,47.9616 77.5,46.5 Z"/></g>
<g><path style="opacity:1" fill="#f5f1e6" d="M 89.5,38.5 C 90.8333,38.5 92.1667,38.5 93.5,38.5C 93.335,41.8499 93.5017,45.1832 94,48.5C 97.6631,45.6667 100.996,46 104,49.5C 104.499,53.8206 104.666,58.1539 104.5,62.5C 103.167,62.5 101.833,62.5 100.5,62.5C 100.665,58.8183 100.499,55.1516 100,51.5C 98,48.8333 96,48.8333 94,51.5C 93.5014,55.1516 93.3347,58.8183 93.5,62.5C 92.1667,62.5 90.8333,62.5 89.5,62.5C 89.5,54.5 89.5,46.5 89.5,38.5 Z"/></g>
<g><path style="opacity:1" fill="#edf7f7" d="M 116.5,46.5 C 117.833,46.5 119.167,46.5 120.5,46.5C 120.5,51.8333 120.5,57.1667 120.5,62.5C 119.167,62.5 117.833,62.5 116.5,62.5C 116.5,57.1667 116.5,51.8333 116.5,46.5 Z"/></g>
<g><path style="opacity:1" fill="#e7e2dd" d="M 123.5,46.5 C 125.144,46.2865 126.644,46.6198 128,47.5C 129,50.5 130,53.5 131,56.5C 132.265,53.5394 133.431,50.5394 134.5,47.5C 136.167,46.1667 137.833,46.1667 139.5,47.5C 137.569,52.1271 135.735,56.7938 134,61.5C 132.301,62.4061 130.467,62.7394 128.5,62.5C 126.437,57.3104 124.77,51.977 123.5,46.5 Z"/></g>
<g><path style="opacity:1" fill="#f0ede8" d="M 144.5,46.5 C 152.002,45.0617 155.669,48.0617 155.5,55.5C 151.774,55.1774 148.107,55.5108 144.5,56.5C 144.977,57.4776 145.643,58.3109 146.5,59C 149.192,59.4298 151.859,59.2631 154.5,58.5C 154.64,60.1238 153.973,61.2904 152.5,62C 142.722,64.2224 138.889,60.3891 141,50.5C 142.032,48.9733 143.199,47.64 144.5,46.5 Z"/></g>
<g><path style="opacity:1" fill="#f5f2e9" d="M 158.5,46.5 C 160.451,46.2267 161.951,46.8934 163,48.5C 166.13,45.8783 169.297,45.8783 172.5,48.5C 173.443,53.1001 173.777,57.7668 173.5,62.5C 172.167,62.5 170.833,62.5 169.5,62.5C 169.665,58.8183 169.499,55.1516 169,51.5C 167,48.8333 165,48.8333 163,51.5C 162.501,55.1516 162.335,58.8183 162.5,62.5C 161.167,62.5 159.833,62.5 158.5,62.5C 158.5,57.1667 158.5,51.8333 158.5,46.5 Z"/></g>
<g><path style="opacity:1" fill="#ecebe9" d="M 180.5,46.5 C 188.167,44.8442 191.833,47.8442 191.5,55.5C 188.167,55.5 184.833,55.5 181.5,55.5C 182.807,59.4536 185.474,60.4536 189.5,58.5C 190.731,59.6507 190.731,60.8173 189.5,62C 179.506,64.3369 175.34,60.5036 177,50.5C 178.376,49.2949 179.542,47.9616 180.5,46.5 Z"/></g>
<g><path style="opacity:1" fill="#ebf1f2" d="M 205.5,38.5 C 206.833,38.5 208.167,38.5 209.5,38.5C 209.5,46.5 209.5,54.5 209.5,62.5C 207.549,62.7733 206.049,62.1066 205,60.5C 195.608,64.1231 191.942,60.7897 194,50.5C 196.867,46.5667 200.533,45.5667 205,47.5C 205.498,44.5184 205.665,41.5184 205.5,38.5 Z"/></g>
<g><path style="opacity:1" fill="#160e19" d="M 61.5,49.5 C 63.6648,49.1159 65.3315,49.7826 66.5,51.5C 64.5,52.8333 62.5,52.8333 60.5,51.5C 60.8627,50.8165 61.1961,50.1499 61.5,49.5 Z"/></g>
<g><path style="opacity:1" fill="#201f2e" d="M 145.5,49.5 C 147.977,49.0508 149.977,49.7175 151.5,51.5C 149.167,52.8333 146.833,52.8333 144.5,51.5C 144.863,50.8165 145.196,50.1499 145.5,49.5 Z"/></g>
<g><path style="opacity:1" fill="#171025" d="M 182.5,49.5 C 184.665,49.1159 186.332,49.7826 187.5,51.5C 185.235,52.6474 182.902,52.8141 180.5,52C 181.381,51.2917 182.047,50.4584 182.5,49.5 Z"/></g>
<g><path style="opacity:1" fill="#1d121e" d="M 200.5,49.5 C 205.151,50.1742 206.651,52.8408 205,57.5C 200.599,60.7635 198.099,59.5969 197.5,54C 197.557,51.7911 198.557,50.2911 200.5,49.5 Z"/></g>
</svg>
