<?xml version="1.0" standalone="no"?>
<!DOCTYPE svg PUBLIC "-//W3C//DTD SVG 20010904//EN"
 "http://www.w3.org/TR/2001/REC-SVG-20010904/DTD/svg10.dtd">
<svg version="1.0" xmlns="http://www.w3.org/2000/svg"
 width="204.000000pt" height="192.000000pt" viewBox="0 0 204.000000 192.000000"
 preserveAspectRatio="xMidYMid meet">

<g transform="translate(0.000000,192.000000) scale(0.100000,-0.100000)"
fill="#000000" stroke="none">
<path d="M41 1894 c-12 -15 -26 -44 -31 -65 -7 -25 -10 -333 -8 -896 3 -845 3
-859 24 -893 l20 -35 974 0 974 0 20 35 c21 34 21 48 24 893 2 563 -1 871 -8
896 -5 21 -19 50 -31 65 l-20 26 -959 0 -959 0 -20 -26z m503 -158 c91 -38
142 -122 134 -225 -8 -115 -97 -196 -213 -196 -177 2 -280 184 -188 333 53 87
174 127 267 88z m1067 -522 c93 -43 161 -129 195 -250 14 -49 18 -119 22 -415
3 -321 2 -357 -13 -372 -14 -14 -40 -17 -164 -17 -101 0 -151 4 -159 12 -9 9
-12 89 -12 300 0 169 -4 308 -11 338 -25 117 -130 170 -236 119 -97 -47 -113
-114 -113 -479 0 -193 -3 -269 -12 -278 -8 -8 -57 -12 -154 -12 -116 0 -145 3
-158 16 -14 14 -16 74 -16 516 0 453 2 503 17 520 14 16 33 18 154 18 160 0
169 -4 169 -77 l0 -46 50 47 c78 73 122 86 280 83 91 -2 124 -7 161 -23z
m-991 -4 c19 -19 20 -33 20 -513 0 -430 -2 -495 -16 -515 -14 -21 -22 -22
-159 -22 -137 0 -145 1 -159 22 -14 20 -16 85 -16 515 0 480 1 494 20 513 18
18 33 20 155 20 122 0 137 -2 155 -20z"/>
</g>
</svg>
